<svg width="22" height="22" viewBox="0 0 22 22" fill="none" xmlns="http://www.w3.org/2000/svg">
<path d="M0 8C0 3.58172 3.58172 0 8 0H22V14C22 18.4183 18.4183 22 14 22H0V8Z" fill="#34D399"/>
<g clip-path="url(#clip0)">
<path d="M16.4097 3.9732C16.5037 4.20822 16.3894 4.47496 16.1543 4.56897L14.0873 5.39576L13.7212 7.1615C14.0654 7.24863 14.3757 7.3591 14.6118 7.4986C14.821 7.6223 15.125 7.86133 15.125 8.24997C15.125 8.29218 15.1214 8.33261 15.1147 8.37133L14.2335 16.6835C14.2013 16.9905 14.0596 17.3225 13.7528 17.5362C13.3056 17.8478 12.3836 18.3333 10.9938 18.3333C9.604 18.3333 8.68201 17.8478 8.23479 17.5362C7.92804 17.3225 7.78632 16.9905 7.75401 16.6835L6.88524 8.37133C6.87858 8.33261 6.875 8.29218 6.875 8.24997C6.875 7.86133 7.17899 7.6223 7.38826 7.4986C7.62822 7.35677 7.94493 7.24494 8.29611 7.15714C9.00553 6.97979 9.96129 6.87497 11 6.87497C11.653 6.87497 12.2732 6.9164 12.82 6.99123L13.245 4.96066C13.2779 4.81283 13.3816 4.69078 13.5222 4.63453L15.8139 3.71787C16.0489 3.62386 16.3157 3.73817 16.4097 3.9732ZM12.6204 7.88941C12.1407 7.82754 11.5898 7.79164 11 7.79164C10.0137 7.79164 9.1361 7.89202 8.51844 8.04645C8.25604 8.11204 8.05865 8.183 7.92447 8.24997C8.05865 8.31695 8.25604 8.38791 8.51844 8.45351C9.1361 8.60792 10.0137 8.70831 11 8.70831C11.5234 8.70831 12.0162 8.68004 12.4557 8.63044L12.6204 7.88941ZM12.888 9.4992C12.3248 9.58003 11.6802 9.62497 11 9.62497C9.96129 9.62497 9.00553 9.52016 8.29612 9.34281C8.15677 9.30797 8.02285 9.26934 7.897 9.22657L8.66564 16.5875C8.67728 16.6982 8.72098 16.7578 8.75879 16.7841C9.08639 17.0123 9.82907 17.4167 10.9938 17.4167C12.1585 17.4167 12.9012 17.0123 13.2288 16.7841C13.2666 16.7578 13.3103 16.6982 13.3219 16.5875L14.103 9.22657C13.9772 9.26934 13.8432 9.30797 13.7039 9.34281C13.465 9.40253 13.1982 9.45402 12.9097 9.49605C12.9025 9.49727 12.8953 9.49832 12.888 9.4992ZM7.76184 8.1439C7.76184 8.1439 7.76385 8.14566 7.76642 8.14937C7.76287 8.14578 7.76184 8.1439 7.76184 8.1439ZM14.2381 8.1439C14.2381 8.1439 14.2371 8.14578 14.2335 8.14937C14.2361 8.14566 14.2381 8.1439 14.2381 8.1439ZM14.0755 8.24997C13.9484 8.18651 13.7645 8.11946 13.5222 8.05679L13.4314 8.46581C13.4482 8.46175 13.465 8.45764 13.4816 8.45351C13.7439 8.38791 13.9414 8.31695 14.0755 8.24997Z" fill="white"/>
</g>
<defs>
<clipPath id="clip0">
<rect width="14.6667" height="14.6667" fill="white" transform="translate(3.66667 3.66667)"/>
</clipPath>
</defs>
</svg>
